Coordinates
version=1
nRows=45
nColumns=13
inDegrees=yes

Units are S.I. units (second, meters, Newtons, ...)
If the header above contains a line with 'inDegrees', this indicates whether rotational values are in degrees (yes) or radians (no).

endheader
time	bJoint_3	bJoint_4	seatpos	slocangle	plocangle	hipangle	kneeangle	footangle	lbackangle	uarmleft_out	uarmleft_trn	uarmleft_up
      4.44000000	      0.00000001	     -0.00000016	     -0.00294725	     -0.00000000	      0.00000000	     94.21426245	      3.63250864	      7.84677109	    -30.71074115	    114.51650283	    313.71184944	     93.64007386
      4.46000000	      0.00000002	     -0.00000016	     -0.00288697	     -0.00000000	      0.00000000	     94.34485811	      3.38994147	      7.73479958	    -32.99398250	    117.47235372	    313.14585533	     89.23219395
      4.48000000	      0.00000002	     -0.00000016	     -0.00282226	      0.00000000	     -0.00000000	     94.49641827	      3.10849660	      7.60491486	    -35.29479079	    120.78136129	    311.84164703	     84.98650646
      4.50000000	      0.00000002	     -0.00000016	     -0.00281571	     -0.00000000	     -0.00000000	     94.51252286	      3.07859451	      7.59111737	    -37.56016780	    123.87808127	    309.94032280	     80.57934487
      4.52000000	      0.00000002	     -0.00000017	     -0.00280958	      0.00000000	      0.00000000	     94.52774699	      3.05032790	      7.57807490	    -39.77060921	    127.86586662	    307.05315508	     76.57706009
      4.54000000	      0.00000002	     -0.00000017	     -0.00284601	     -0.00000000	     -0.00000000	     94.43925450	      3.21464105	      7.65389555	    -40.56513414	    131.06034606	    304.66263557	     72.02173661
      4.56000000	      0.00000002	     -0.00000017	     -0.00289865	     -0.00000000	     -0.00000000	     94.31882986	      3.43828218	      7.75711204	    -40.20565834	    138.90514065	    308.72515957	     62.71670419
      4.58000000	      0.00000001	     -0.00000018	     -0.00299821	     -0.00000000	     -0.00000000	     94.11032424	      3.82559752	      7.93592175	    -40.09651709	    144.07968688	    314.71546453	     62.54991832
      4.60000000	      0.00000001	     -0.00000018	     -0.00313584	      0.00000000	      0.00000000	     93.85282983	      4.30408523	      8.15691506	    -40.08503598	    145.87963324	    313.09871323	     60.17509077
      4.62000000	      0.00000001	     -0.00000018	     -0.00294127	     -0.00000000	     -0.00000000	     94.22682575	      3.60917155	      7.83599730	    -40.10873155	    144.56965941	    315.05849316	     64.71011014
      4.64000000	      0.00000002	     -0.00000017	     -0.00285738	     -0.00000000	     -0.00000000	     94.41254395	      3.26424173	      7.67678568	    -40.16488636	    143.01209545	    316.65647355	     68.38143692
      4.66000000	      0.00000002	     -0.00000017	     -0.00280729	      0.00000000	     -0.00000000	     94.53347011	      3.03970198	      7.57317209	    -40.23213628	    141.17225324	    318.17384716	     71.62041884
      4.68000000	      0.00000002	     -0.00000016	     -0.00278753	      0.00000000	     -0.00000000	     94.58371162	      2.94642427	      7.53013589	    -40.29764817	    139.59512690	    319.32911092	     74.82936874
      4.70000000	      0.00000002	     -0.00000016	     -0.00276798	      0.00000000	      0.00000000	     94.63503110	      2.85115276	      7.48618386	    -40.35968751	    137.51940059	    320.62546939	     77.50613600
      4.72000000	      0.00000002	     -0.00000016	     -0.00275859	      0.00000000	      0.00000000	     94.66030936	      2.80422800	      7.46453736	    -40.40927294	    135.95109842	    321.64767480	     80.05070149
      4.74000000	      0.00000002	     -0.00000016	     -0.00276054	      0.00000000	      0.00000000	     94.65504654	      2.81399737	      7.46904391	    -40.44686615	    134.71634502	    322.50382812	     82.80644980
      4.76000000	      0.00000002	     -0.00000016	     -0.00275484	      0.00000000	      0.00000000	     94.67054081	      2.78523559	      7.45577640	    -40.48460158	    133.34831810	    323.50826094	     85.31834658
      4.78000000	      0.00000002	     -0.00000016	     -0.00276416	      0.00000000	      0.00000000	     94.64527374	      2.83213884	      7.47741257	    -40.50218994	    131.98316992	    324.28929612	     87.66252353
      4.80000000	      0.00000002	     -0.00000016	     -0.00277122	     -0.00000000	      0.00000000	     94.62641631	      2.86714506	      7.49356137	    -40.51745430	    130.77928638	    325.15364497	     90.11834822
      4.82000000	      0.00000002	     -0.00000016	     -0.00278443	      0.00000000	     -0.00000000	     94.59173265	      2.93153321	      7.52326586	    -40.52048400	    129.53410254	    325.88778947	     92.23102092
      4.84000000	      0.00000002	     -0.00000017	     -0.00280855	     -0.00000000	      0.00000000	     94.53031552	      3.04555898	      7.57587450	    -40.50986807	    128.29765313	    326.54097465	     94.32297243
      4.86000000	      0.00000002	     -0.00000017	     -0.00283048	      0.00000000	     -0.00000000	     94.47639588	      3.14567407	      7.62206995	    -40.50013407	    127.32195100	    327.32400901	     96.61183876
      4.88000000	      0.00000002	     -0.00000017	     -0.00286831	     -0.00000000	      0.00000000	     94.38723795	      3.31123608	      7.69847404	    -40.47651038	    126.29688252	    328.03729582	     98.84300674
      4.90000000	      0.00000001	     -0.00000018	     -0.00291077	      0.00000000	     -0.00000000	     94.29220713	      3.48772900	      7.77993614	    -40.45138981	    125.09169447	    328.73606910	    100.86584665
      4.92000000	      0.00000001	     -0.00000018	     -0.00297948	      0.00000000	     -0.00000000	     94.14790287	      3.75578307	      7.90368594	    -40.41448955	    123.97930484	    329.37761883	    102.90638600
      4.94000000	      0.00000001	     -0.00000018	     -0.00310767	     -0.00000000	      0.00000000	     93.90313953	      4.21058259	      8.11372211	    -39.58711749	    122.62698915	    330.37327090	    105.02212576
      4.96000000	      0.00000001	     -0.00000019	     -0.00339556	     -0.00000000	      0.00000000	     93.43234737	      5.08585105	      8.51819842	    -37.94896566	    121.20132841	    331.46283153	    107.43391442
      4.98000000	      0.00000001	     -0.00000019	     -0.00353865	      0.00000000	     -0.00000000	     93.22634019	      5.46904498	      8.69538517	    -36.34290818	    119.03789282	    331.85479194	    111.47614563
      5.00000000	      0.00000001	     -0.00000019	     -0.00359183	     -0.00000000	      0.00000000	     93.15337232	      5.60480125	      8.75817357	    -34.81129664	    118.26763840	    330.48852152	    113.63596889
      5.02000000	      0.00000000	     -0.00000019	     -0.00424862	      0.00000000	     -0.00000000	     92.36648262	      7.06975453	      9.43623714	    -33.20707606	    117.79820236	    329.44050949	    115.82350839
      5.04000000	      0.00000000	     -0.00000020	     -0.00499026	      0.00000000	     -0.00000000	     91.64021016	      8.42338571	     10.06359587	    -31.60580193	    117.26659663	    327.96430887	    118.10122189
      5.06000000	      0.00000000	     -0.00000020	     -0.00724408	      0.00000000	     -0.00000000	     89.93518144	     11.60689747	     11.54207891	    -30.03876019	    116.74074501	    326.56473187	    120.29613741
      5.08000000	      0.00000000	     -0.00000020	     -0.01010984	      0.00000000	     -0.00000000	     88.28648998	     14.69262519	     12.97911517	    -28.47866689	    116.23157465	    325.13026957	    122.50713277
      5.10000000	      0.00000000	     -0.00000020	     -0.01311562	      0.00000000	     -0.00000000	     86.86881451	     17.35166954	     14.22048406	    -26.82503773	    115.82062954	    323.43952504	    124.79609131
      5.12000000	      0.00000000	     -0.00000020	     -0.01816085	      0.00000000	     -0.00000000	     84.88641759	     21.07856214	     15.96497973	    -25.28765838	    115.37784359	    321.95293626	    126.97890933
      5.14000000	      0.00000000	     -0.00000020	     -0.02307172	      0.00000000	     -0.00000000	     83.24847244	     24.16534203	     17.41381447	    -23.66765673	    114.93946935	    320.40429145	    129.20243114
      5.16000000	      0.00000000	     -0.00000020	     -0.02913590	      0.00000000	     -0.00000000	     81.47804997	     27.50923553	     18.98728550	    -22.15451550	    114.68509832	    318.64281582	    131.35651939
      5.18000000	      0.00000000	     -0.00000020	     -0.03605996	      0.00000000	     -0.00000000	     79.68947088	     30.89517990	     20.58465078	    -20.55874527	    114.44499530	    316.80677796	    133.57756763
      5.20000000	      0.00000000	     -0.00000020	     -0.04319333	      0.00000000	     -0.00000000	     78.03161829	     34.04053874	     22.07215703	    -18.96066345	    114.28734249	    314.92598636	    135.75698055
      5.22000000	      0.00000000	     -0.00000020	     -0.05212063	      0.00000000	     -0.00000000	     76.15025562	     37.61792933	     23.76818496	    -17.46166070	    114.15416516	    312.87804395	    138.09305203
      5.24000000	      0.00000000	     -0.00000020	     -0.06115932	      0.00000000	     -0.00000000	     74.41086882	     40.93287978	     25.34374860	    -15.89530718	    113.98433975	    310.92566879	    140.38258146
      5.26000000	      0.00000000	     -0.00000020	     -0.07015002	      0.00000000	     -0.00000000	     72.80871100	     43.99270388	     26.80141488	    -14.29816444	    114.14416311	    308.54516268	    142.69980456
      5.28000000	      0.00000000	     -0.00000020	     -0.08114853	      0.00000000	     -0.00000000	     70.98634838	     47.48059120	     28.46693957	    -12.80561192	    114.70536257	    307.09375697	    143.48707225
      5.30000000	      0.00000000	     -0.00000020	     -0.09212799	      0.00000000	     -0.00000000	     69.28902496	     50.73642910	     30.02545406	    -11.22824447	    115.33741530	    305.40776942	    144.40227550
      5.32000000	      0.00000000	     -0.00000020	     -0.10318479	      0.00000000	     -0.00000000	     67.68041965	     53.82865552	     31.50907517	     -9.59083514	    116.14336833	    303.43031694	    145.35236704
